<svg xmlns="http://www.w3.org/2000/svg" viewBox="0 0 1200 700">
<rect width="1200" height="700" fill="#fff9fb"/>
<line x1="0" y1="0" x2="0" y2="700" stroke="#efb8c1" stroke-width="1.4"/>
<line x1="20" y1="0" x2="20" y2="700" stroke="#f7d7dc" stroke-width="1"/>
<line x1="40" y1="0" x2="40" y2="700" stroke="#f7d7dc" stroke-width="1"/>
<line x1="60" y1="0" x2="60" y2="700" stroke="#f7d7dc" stroke-width="1"/>
<line x1="80" y1="0" x2="80" y2="700" stroke="#f7d7dc" stroke-width="1"/>
<line x1="100" y1="0" x2="100" y2="700" stroke="#efb8c1" stroke-width="1.4"/>
<line x1="120" y1="0" x2="120" y2="700" stroke="#f7d7dc" stroke-width="1"/>
<line x1="140" y1="0" x2="140" y2="700" stroke="#f7d7dc" stroke-width="1"/>
<line x1="160" y1="0" x2="160" y2="700" stroke="#f7d7dc" stroke-width="1"/>
<line x1="180" y1="0" x2="180" y2="700" stroke="#f7d7dc" stroke-width="1"/>
<line x1="200" y1="0" x2="200" y2="700" stroke="#efb8c1" stroke-width="1.4"/>
<line x1="220" y1="0" x2="220" y2="700" stroke="#f7d7dc" stroke-width="1"/>
<line x1="240" y1="0" x2="240" y2="700" stroke="#f7d7dc" stroke-width="1"/>
<line x1="260" y1="0" x2="260" y2="700" stroke="#f7d7dc" stroke-width="1"/>
<line x1="280" y1="0" x2="280" y2="700" stroke="#f7d7dc" stroke-width="1"/>
<line x1="300" y1="0" x2="300" y2="700" stroke="#efb8c1" stroke-width="1.4"/>
<line x1="320" y1="0" x2="320" y2="700" stroke="#f7d7dc" stroke-width="1"/>
<line x1="340" y1="0" x2="340" y2="700" stroke="#f7d7dc" stroke-width="1"/>
<line x1="360" y1="0" x2="360" y2="700" stroke="#f7d7dc" stroke-width="1"/>
<line x1="380" y1="0" x2="380" y2="700" stroke="#f7d7dc" stroke-width="1"/>
<line x1="400" y1="0" x2="400" y2="700" stroke="#efb8c1" stroke-width="1.4"/>
<line x1="420" y1="0" x2="420" y2="700" stroke="#f7d7dc" stroke-width="1"/>
<line x1="440" y1="0" x2="440" y2="700" stroke="#f7d7dc" stroke-width="1"/>
<line x1="460" y1="0" x2="460" y2="700" stroke="#f7d7dc" stroke-width="1"/>
<line x1="480" y1="0" x2="480" y2="700" stroke="#f7d7dc" stroke-width="1"/>
<line x1="500" y1="0" x2="500" y2="700" stroke="#efb8c1" stroke-width="1.4"/>
<line x1="520" y1="0" x2="520" y2="700" stroke="#f7d7dc" stroke-width="1"/>
<line x1="540" y1="0" x2="540" y2="700" stroke="#f7d7dc" stroke-width="1"/>
<line x1="560" y1="0" x2="560" y2="700" stroke="#f7d7dc" stroke-width="1"/>
<line x1="580" y1="0" x2="580" y2="700" stroke="#f7d7dc" stroke-width="1"/>
<line x1="600" y1="0" x2="600" y2="700" stroke="#efb8c1" stroke-width="1.4"/>
<line x1="620" y1="0" x2="620" y2="700" stroke="#f7d7dc" stroke-width="1"/>
<line x1="640" y1="0" x2="640" y2="700" stroke="#f7d7dc" stroke-width="1"/>
<line x1="660" y1="0" x2="660" y2="700" stroke="#f7d7dc" stroke-width="1"/>
<line x1="680" y1="0" x2="680" y2="700" stroke="#f7d7dc" stroke-width="1"/>
<line x1="700" y1="0" x2="700" y2="700" stroke="#efb8c1" stroke-width="1.4"/>
<line x1="720" y1="0" x2="720" y2="700" stroke="#f7d7dc" stroke-width="1"/>
<line x1="740" y1="0" x2="740" y2="700" stroke="#f7d7dc" stroke-width="1"/>
<line x1="760" y1="0" x2="760" y2="700" stroke="#f7d7dc" stroke-width="1"/>
<line x1="780" y1="0" x2="780" y2="700" stroke="#f7d7dc" stroke-width="1"/>
<line x1="800" y1="0" x2="800" y2="700" stroke="#efb8c1" stroke-width="1.4"/>
<line x1="820" y1="0" x2="820" y2="700" stroke="#f7d7dc" stroke-width="1"/>
<line x1="840" y1="0" x2="840" y2="700" stroke="#f7d7dc" stroke-width="1"/>
<line x1="860" y1="0" x2="860" y2="700" stroke="#f7d7dc" stroke-width="1"/>
<line x1="880" y1="0" x2="880" y2="700" stroke="#f7d7dc" stroke-width="1"/>
<line x1="900" y1="0" x2="900" y2="700" stroke="#efb8c1" stroke-width="1.4"/>
<line x1="920" y1="0" x2="920" y2="700" stroke="#f7d7dc" stroke-width="1"/>
<line x1="940" y1="0" x2="940" y2="700" stroke="#f7d7dc" stroke-width="1"/>
<line x1="960" y1="0" x2="960" y2="700" stroke="#f7d7dc" stroke-width="1"/>
<line x1="980" y1="0" x2="980" y2="700" stroke="#f7d7dc" stroke-width="1"/>
<line x1="1000" y1="0" x2="1000" y2="700" stroke="#efb8c1" stroke-width="1.4"/>
<line x1="1020" y1="0" x2="1020" y2="700" stroke="#f7d7dc" stroke-width="1"/>
<line x1="1040" y1="0" x2="1040" y2="700" stroke="#f7d7dc" stroke-width="1"/>
<line x1="1060" y1="0" x2="1060" y2="700" stroke="#f7d7dc" stroke-width="1"/>
<line x1="1080" y1="0" x2="1080" y2="700" stroke="#f7d7dc" stroke-width="1"/>
<line x1="1100" y1="0" x2="1100" y2="700" stroke="#efb8c1" stroke-width="1.4"/>
<line x1="1120" y1="0" x2="1120" y2="700" stroke="#f7d7dc" stroke-width="1"/>
<line x1="1140" y1="0" x2="1140" y2="700" stroke="#f7d7dc" stroke-width="1"/>
<line x1="1160" y1="0" x2="1160" y2="700" stroke="#f7d7dc" stroke-width="1"/>
<line x1="1180" y1="0" x2="1180" y2="700" stroke="#f7d7dc" stroke-width="1"/>
<line x1="0" y1="0" x2="1200" y2="0" stroke="#efb8c1" stroke-width="1.4"/>
<line x1="0" y1="20" x2="1200" y2="20" stroke="#f7d7dc" stroke-width="1"/>
<line x1="0" y1="40" x2="1200" y2="40" stroke="#f7d7dc" stroke-width="1"/>
<line x1="0" y1="60" x2="1200" y2="60" stroke="#f7d7dc" stroke-width="1"/>
<line x1="0" y1="80" x2="1200" y2="80" stroke="#f7d7dc" stroke-width="1"/>
<line x1="0" y1="100" x2="1200" y2="100" stroke="#efb8c1" stroke-width="1.4"/>
<line x1="0" y1="120" x2="1200" y2="120" stroke="#f7d7dc" stroke-width="1"/>
<line x1="0" y1="140" x2="1200" y2="140" stroke="#f7d7dc" stroke-width="1"/>
<line x1="0" y1="160" x2="1200" y2="160" stroke="#f7d7dc" stroke-width="1"/>
<line x1="0" y1="180" x2="1200" y2="180" stroke="#f7d7dc" stroke-width="1"/>
<line x1="0" y1="200" x2="1200" y2="200" stroke="#efb8c1" stroke-width="1.4"/>
<line x1="0" y1="220" x2="1200" y2="220" stroke="#f7d7dc" stroke-width="1"/>
<line x1="0" y1="240" x2="1200" y2="240" stroke="#f7d7dc" stroke-width="1"/>
<line x1="0" y1="260" x2="1200" y2="260" stroke="#f7d7dc" stroke-width="1"/>
<line x1="0" y1="280" x2="1200" y2="280" stroke="#f7d7dc" stroke-width="1"/>
<line x1="0" y1="300" x2="1200" y2="300" stroke="#efb8c1" stroke-width="1.4"/>
<line x1="0" y1="320" x2="1200" y2="320" stroke="#f7d7dc" stroke-width="1"/>
<line x1="0" y1="340" x2="1200" y2="340" stroke="#f7d7dc" stroke-width="1"/>
<line x1="0" y1="360" x2="1200" y2="360" stroke="#f7d7dc" stroke-width="1"/>
<line x1="0" y1="380" x2="1200" y2="380" stroke="#f7d7dc" stroke-width="1"/>
<line x1="0" y1="400" x2="1200" y2="400" stroke="#efb8c1" stroke-width="1.4"/>
<line x1="0" y1="420" x2="1200" y2="420" stroke="#f7d7dc" stroke-width="1"/>
<line x1="0" y1="440" x2="1200" y2="440" stroke="#f7d7dc" stroke-width="1"/>
<line x1="0" y1="460" x2="1200" y2="460" stroke="#f7d7dc" stroke-width="1"/>
<line x1="0" y1="480" x2="1200" y2="480" stroke="#f7d7dc" stroke-width="1"/>
<line x1="0" y1="500" x2="1200" y2="500" stroke="#efb8c1" stroke-width="1.4"/>
<line x1="0" y1="520" x2="1200" y2="520" stroke="#f7d7dc" stroke-width="1"/>
<line x1="0" y1="540" x2="1200" y2="540" stroke="#f7d7dc" stroke-width="1"/>
<line x1="0" y1="560" x2="1200" y2="560" stroke="#f7d7dc" stroke-width="1"/>
<line x1="0" y1="580" x2="1200" y2="580" stroke="#f7d7dc" stroke-width="1"/>
<line x1="0" y1="600" x2="1200" y2="600" stroke="#efb8c1" stroke-width="1.4"/>
<line x1="0" y1="620" x2="1200" y2="620" stroke="#f7d7dc" stroke-width="1"/>
<line x1="0" y1="640" x2="1200" y2="640" stroke="#f7d7dc" stroke-width="1"/>
<line x1="0" y1="660" x2="1200" y2="660" stroke="#f7d7dc" stroke-width="1"/>
<line x1="0" y1="680" x2="1200" y2="680" stroke="#f7d7dc" stroke-width="1"/>
<text x="60" y="60" font-family="Arial, Helvetica, sans-serif" font-size="34" font-weight="800" fill="#111827" text-anchor="start">EKG Beispiel: ST-Hebungsinfarkt anterior</text>
<text x="60" y="104" font-family="Arial, Helvetica, sans-serif" font-size="20" font-weight="600" fill="#475569" text-anchor="start">deutliche ST-Hebungen in V2 bis V4</text>
<text x="50" y="198" font-family="Arial, Helvetica, sans-serif" font-size="28" font-weight="800" fill="#0f766e" text-anchor="start">V2</text>
<polyline points="110,190 125,190 140,176 155,190 168,190 174,198 180,134 186,208 194,190 220,172 260,172 280,162 300,152 330,172 370,172 385,190 400,176 415,190 428,190 434,198 440,134 446,208 454,190 480,172 520,172 540,162 560,152 590,172 630,172 645,190 660,176 675,190 688,190 694,198 700,134 706,208 714,190 740,172 780,172 800,162 820,152 850,172 890,172 905,190 920,176 935,190 948,190 954,198 960,134 966,208 974,190 1000,172 1040,172 1060,162 1080,152 1110,172 1150,172" fill="none" stroke="#0f766e" stroke-width="5" stroke-linecap="round" stroke-linejoin="round"/>
<text x="50" y="348" font-family="Arial, Helvetica, sans-serif" font-size="28" font-weight="800" fill="#0f766e" text-anchor="start">V3</text>
<polyline points="110,340 125,340 140,326 155,340 168,340 174,348 180,284 186,358 194,340 220,322 260,322 280,312 300,302 330,322 370,322 385,340 400,326 415,340 428,340 434,348 440,284 446,358 454,340 480,322 520,322 540,312 560,302 590,322 630,322 645,340 660,326 675,340 688,340 694,348 700,284 706,358 714,340 740,322 780,322 800,312 820,302 850,322 890,322 905,340 920,326 935,340 948,340 954,348 960,284 966,358 974,340 1000,322 1040,322 1060,312 1080,302 1110,322 1150,322" fill="none" stroke="#0f766e" stroke-width="5" stroke-linecap="round" stroke-linejoin="round"/>
<text x="50" y="498" font-family="Arial, Helvetica, sans-serif" font-size="28" font-weight="800" fill="#0f766e" text-anchor="start">V4</text>
<polyline points="110,490 125,490 140,476 155,490 168,490 174,498 180,434 186,508 194,490 220,472 260,472 280,462 300,452 330,472 370,472 385,490 400,476 415,490 428,490 434,498 440,434 446,508 454,490 480,472 520,472 540,462 560,452 590,472 630,472 645,490 660,476 675,490 688,490 694,498 700,434 706,508 714,490 740,472 780,472 800,462 820,452 850,472 890,472 905,490 920,476 935,490 948,490 954,498 960,434 966,508 974,490 1000,472 1040,472 1060,462 1080,452 1110,472 1150,472" fill="none" stroke="#0f766e" stroke-width="5" stroke-linecap="round" stroke-linejoin="round"/>
<text x="930" y="340" font-family="Arial, Helvetica, sans-serif" font-size="28" font-weight="800" fill="#dc2626" text-anchor="start">ST-Hebung</text>
</svg>