<svg xmlns="http://www.w3.org/2000/svg" viewBox="0 0 1200 700">
<rect width="1200" height="700" fill="#fff9fb"/>
<line x1="0" y1="0" x2="0" y2="700" stroke="#efb8c1" stroke-width="1.4"/>
<line x1="20" y1="0" x2="20" y2="700" stroke="#f7d7dc" stroke-width="1"/>
<line x1="40" y1="0" x2="40" y2="700" stroke="#f7d7dc" stroke-width="1"/>
<line x1="60" y1="0" x2="60" y2="700" stroke="#f7d7dc" stroke-width="1"/>
<line x1="80" y1="0" x2="80" y2="700" stroke="#f7d7dc" stroke-width="1"/>
<line x1="100" y1="0" x2="100" y2="700" stroke="#efb8c1" stroke-width="1.4"/>
<line x1="120" y1="0" x2="120" y2="700" stroke="#f7d7dc" stroke-width="1"/>
<line x1="140" y1="0" x2="140" y2="700" stroke="#f7d7dc" stroke-width="1"/>
<line x1="160" y1="0" x2="160" y2="700" stroke="#f7d7dc" stroke-width="1"/>
<line x1="180" y1="0" x2="180" y2="700" stroke="#f7d7dc" stroke-width="1"/>
<line x1="200" y1="0" x2="200" y2="700" stroke="#efb8c1" stroke-width="1.4"/>
<line x1="220" y1="0" x2="220" y2="700" stroke="#f7d7dc" stroke-width="1"/>
<line x1="240" y1="0" x2="240" y2="700" stroke="#f7d7dc" stroke-width="1"/>
<line x1="260" y1="0" x2="260" y2="700" stroke="#f7d7dc" stroke-width="1"/>
<line x1="280" y1="0" x2="280" y2="700" stroke="#f7d7dc" stroke-width="1"/>
<line x1="300" y1="0" x2="300" y2="700" stroke="#efb8c1" stroke-width="1.4"/>
<line x1="320" y1="0" x2="320" y2="700" stroke="#f7d7dc" stroke-width="1"/>
<line x1="340" y1="0" x2="340" y2="700" stroke="#f7d7dc" stroke-width="1"/>
<line x1="360" y1="0" x2="360" y2="700" stroke="#f7d7dc" stroke-width="1"/>
<line x1="380" y1="0" x2="380" y2="700" stroke="#f7d7dc" stroke-width="1"/>
<line x1="400" y1="0" x2="400" y2="700" stroke="#efb8c1" stroke-width="1.4"/>
<line x1="420" y1="0" x2="420" y2="700" stroke="#f7d7dc" stroke-width="1"/>
<line x1="440" y1="0" x2="440" y2="700" stroke="#f7d7dc" stroke-width="1"/>
<line x1="460" y1="0" x2="460" y2="700" stroke="#f7d7dc" stroke-width="1"/>
<line x1="480" y1="0" x2="480" y2="700" stroke="#f7d7dc" stroke-width="1"/>
<line x1="500" y1="0" x2="500" y2="700" stroke="#efb8c1" stroke-width="1.4"/>
<line x1="520" y1="0" x2="520" y2="700" stroke="#f7d7dc" stroke-width="1"/>
<line x1="540" y1="0" x2="540" y2="700" stroke="#f7d7dc" stroke-width="1"/>
<line x1="560" y1="0" x2="560" y2="700" stroke="#f7d7dc" stroke-width="1"/>
<line x1="580" y1="0" x2="580" y2="700" stroke="#f7d7dc" stroke-width="1"/>
<line x1="600" y1="0" x2="600" y2="700" stroke="#efb8c1" stroke-width="1.4"/>
<line x1="620" y1="0" x2="620" y2="700" stroke="#f7d7dc" stroke-width="1"/>
<line x1="640" y1="0" x2="640" y2="700" stroke="#f7d7dc" stroke-width="1"/>
<line x1="660" y1="0" x2="660" y2="700" stroke="#f7d7dc" stroke-width="1"/>
<line x1="680" y1="0" x2="680" y2="700" stroke="#f7d7dc" stroke-width="1"/>
<line x1="700" y1="0" x2="700" y2="700" stroke="#efb8c1" stroke-width="1.4"/>
<line x1="720" y1="0" x2="720" y2="700" stroke="#f7d7dc" stroke-width="1"/>
<line x1="740" y1="0" x2="740" y2="700" stroke="#f7d7dc" stroke-width="1"/>
<line x1="760" y1="0" x2="760" y2="700" stroke="#f7d7dc" stroke-width="1"/>
<line x1="780" y1="0" x2="780" y2="700" stroke="#f7d7dc" stroke-width="1"/>
<line x1="800" y1="0" x2="800" y2="700" stroke="#efb8c1" stroke-width="1.4"/>
<line x1="820" y1="0" x2="820" y2="700" stroke="#f7d7dc" stroke-width="1"/>
<line x1="840" y1="0" x2="840" y2="700" stroke="#f7d7dc" stroke-width="1"/>
<line x1="860" y1="0" x2="860" y2="700" stroke="#f7d7dc" stroke-width="1"/>
<line x1="880" y1="0" x2="880" y2="700" stroke="#f7d7dc" stroke-width="1"/>
<line x1="900" y1="0" x2="900" y2="700" stroke="#efb8c1" stroke-width="1.4"/>
<line x1="920" y1="0" x2="920" y2="700" stroke="#f7d7dc" stroke-width="1"/>
<line x1="940" y1="0" x2="940" y2="700" stroke="#f7d7dc" stroke-width="1"/>
<line x1="960" y1="0" x2="960" y2="700" stroke="#f7d7dc" stroke-width="1"/>
<line x1="980" y1="0" x2="980" y2="700" stroke="#f7d7dc" stroke-width="1"/>
<line x1="1000" y1="0" x2="1000" y2="700" stroke="#efb8c1" stroke-width="1.4"/>
<line x1="1020" y1="0" x2="1020" y2="700" stroke="#f7d7dc" stroke-width="1"/>
<line x1="1040" y1="0" x2="1040" y2="700" stroke="#f7d7dc" stroke-width="1"/>
<line x1="1060" y1="0" x2="1060" y2="700" stroke="#f7d7dc" stroke-width="1"/>
<line x1="1080" y1="0" x2="1080" y2="700" stroke="#f7d7dc" stroke-width="1"/>
<line x1="1100" y1="0" x2="1100" y2="700" stroke="#efb8c1" stroke-width="1.4"/>
<line x1="1120" y1="0" x2="1120" y2="700" stroke="#f7d7dc" stroke-width="1"/>
<line x1="1140" y1="0" x2="1140" y2="700" stroke="#f7d7dc" stroke-width="1"/>
<line x1="1160" y1="0" x2="1160" y2="700" stroke="#f7d7dc" stroke-width="1"/>
<line x1="1180" y1="0" x2="1180" y2="700" stroke="#f7d7dc" stroke-width="1"/>
<line x1="0" y1="0" x2="1200" y2="0" stroke="#efb8c1" stroke-width="1.4"/>
<line x1="0" y1="20" x2="1200" y2="20" stroke="#f7d7dc" stroke-width="1"/>
<line x1="0" y1="40" x2="1200" y2="40" stroke="#f7d7dc" stroke-width="1"/>
<line x1="0" y1="60" x2="1200" y2="60" stroke="#f7d7dc" stroke-width="1"/>
<line x1="0" y1="80" x2="1200" y2="80" stroke="#f7d7dc" stroke-width="1"/>
<line x1="0" y1="100" x2="1200" y2="100" stroke="#efb8c1" stroke-width="1.4"/>
<line x1="0" y1="120" x2="1200" y2="120" stroke="#f7d7dc" stroke-width="1"/>
<line x1="0" y1="140" x2="1200" y2="140" stroke="#f7d7dc" stroke-width="1"/>
<line x1="0" y1="160" x2="1200" y2="160" stroke="#f7d7dc" stroke-width="1"/>
<line x1="0" y1="180" x2="1200" y2="180" stroke="#f7d7dc" stroke-width="1"/>
<line x1="0" y1="200" x2="1200" y2="200" stroke="#efb8c1" stroke-width="1.4"/>
<line x1="0" y1="220" x2="1200" y2="220" stroke="#f7d7dc" stroke-width="1"/>
<line x1="0" y1="240" x2="1200" y2="240" stroke="#f7d7dc" stroke-width="1"/>
<line x1="0" y1="260" x2="1200" y2="260" stroke="#f7d7dc" stroke-width="1"/>
<line x1="0" y1="280" x2="1200" y2="280" stroke="#f7d7dc" stroke-width="1"/>
<line x1="0" y1="300" x2="1200" y2="300" stroke="#efb8c1" stroke-width="1.4"/>
<line x1="0" y1="320" x2="1200" y2="320" stroke="#f7d7dc" stroke-width="1"/>
<line x1="0" y1="340" x2="1200" y2="340" stroke="#f7d7dc" stroke-width="1"/>
<line x1="0" y1="360" x2="1200" y2="360" stroke="#f7d7dc" stroke-width="1"/>
<line x1="0" y1="380" x2="1200" y2="380" stroke="#f7d7dc" stroke-width="1"/>
<line x1="0" y1="400" x2="1200" y2="400" stroke="#efb8c1" stroke-width="1.4"/>
<line x1="0" y1="420" x2="1200" y2="420" stroke="#f7d7dc" stroke-width="1"/>
<line x1="0" y1="440" x2="1200" y2="440" stroke="#f7d7dc" stroke-width="1"/>
<line x1="0" y1="460" x2="1200" y2="460" stroke="#f7d7dc" stroke-width="1"/>
<line x1="0" y1="480" x2="1200" y2="480" stroke="#f7d7dc" stroke-width="1"/>
<line x1="0" y1="500" x2="1200" y2="500" stroke="#efb8c1" stroke-width="1.4"/>
<line x1="0" y1="520" x2="1200" y2="520" stroke="#f7d7dc" stroke-width="1"/>
<line x1="0" y1="540" x2="1200" y2="540" stroke="#f7d7dc" stroke-width="1"/>
<line x1="0" y1="560" x2="1200" y2="560" stroke="#f7d7dc" stroke-width="1"/>
<line x1="0" y1="580" x2="1200" y2="580" stroke="#f7d7dc" stroke-width="1"/>
<line x1="0" y1="600" x2="1200" y2="600" stroke="#efb8c1" stroke-width="1.4"/>
<line x1="0" y1="620" x2="1200" y2="620" stroke="#f7d7dc" stroke-width="1"/>
<line x1="0" y1="640" x2="1200" y2="640" stroke="#f7d7dc" stroke-width="1"/>
<line x1="0" y1="660" x2="1200" y2="660" stroke="#f7d7dc" stroke-width="1"/>
<line x1="0" y1="680" x2="1200" y2="680" stroke="#f7d7dc" stroke-width="1"/>
<text x="60" y="60" font-family="Arial, Helvetica, sans-serif" font-size="34" font-weight="800" fill="#111827" text-anchor="start">EKG Beispiel: AV-Block I°</text>
<text x="60" y="104" font-family="Arial, Helvetica, sans-serif" font-size="20" font-weight="600" fill="#475569" text-anchor="start">verlängertes PQ-Intervall bei erhaltener 1:1-Überleitung</text>
<text x="40" y="228" font-family="Arial, Helvetica, sans-serif" font-size="28" font-weight="800" fill="#0f766e" text-anchor="start">II</text>
<polyline points="80,220 95,220 108,204 122,220 200,220 206,228 212,162 218,238 226,220 260,220 282,210 306,192 330,220 380,220 395,220 408,204 422,220 500,220 506,228 512,162 518,238 526,220 560,220 582,210 606,192 630,220 680,220 695,220 708,204 722,220 800,220 806,228 812,162 818,238 826,220 860,220 882,210 906,192 930,220 980,220 995,220 1008,204 1022,220 1100,220 1106,228 1112,162 1118,238 1126,220 1160,220 1182,210 1206,192 1230,220 1280,220" fill="none" stroke="#0f766e" stroke-width="5" stroke-linecap="round" stroke-linejoin="round"/>
<text x="220" y="175" font-family="Arial, Helvetica, sans-serif" font-size="24" font-weight="700" fill="#dc2626" text-anchor="start">PQ > 0,20 s</text>
<line x1="95" y1="160" x2="135" y2="160" stroke="#dc2626" stroke-width="4"/>
<line x1="135" y1="160" x2="135" y2="172" stroke="#dc2626" stroke-width="4"/>
<line x1="135" y1="160" x2="210" y2="160" stroke="#dc2626" stroke-width="4"/>
<line x1="210" y1="160" x2="210" y2="172" stroke="#dc2626" stroke-width="4"/>
</svg>